<mxfile host="65bd71144e">
    <diagram id="upa3DFTV4PBZ1Uuf5kjk" name="Page-1">
        <mxGraphModel dx="456" dy="417" grid="1" gridSize="10" guides="1" tooltips="1" connect="1" arrows="1" fold="1" page="1" pageScale="1" pageWidth="10" pageHeight="10" math="0" shadow="0">
            <root>
                <mxCell id="0"/>
                <mxCell id="1" parent="0"/>
                <mxCell id="19" style="edgeStyle=none;html=1;exitX=0.5;exitY=1;exitDx=0;exitDy=0;entryX=0.5;entryY=0;entryDx=0;entryDy=0;strokeWidth=2;fontFamily=仿宋;" edge="1" parent="1" source="7" target="18">
                    <mxGeometry relative="1" as="geometry"/>
                </mxCell>
                <mxCell id="21" value="公告发布" style="edgeLabel;html=1;align=center;verticalAlign=middle;resizable=0;points=[];fontFamily=仿宋;" vertex="1" connectable="0" parent="19">
                    <mxGeometry x="-0.309" y="1" relative="1" as="geometry">
                        <mxPoint as="offset"/>
                    </mxGeometry>
                </mxCell>
                <mxCell id="7" value="" style="rounded=1;whiteSpace=wrap;html=1;fillColor=#dae8fc;strokeColor=none;fontFamily=仿宋;" vertex="1" parent="1">
                    <mxGeometry x="-55" y="-40" width="115" height="70" as="geometry"/>
                </mxCell>
                <mxCell id="10" value="&lt;span style=&quot;color: rgb(0, 0, 0);&quot;&gt;采购公告&lt;/span&gt;" style="rounded=1;whiteSpace=wrap;html=1;fontFamily=仿宋;" vertex="1" parent="1">
                    <mxGeometry x="-22.5" y="-35" width="50" height="18" as="geometry"/>
                </mxCell>
                <mxCell id="14" value="&lt;span style=&quot;color: rgb(0, 0, 0);&quot;&gt;候选公告&lt;/span&gt;" style="rounded=1;whiteSpace=wrap;html=1;fontFamily=仿宋;" vertex="1" parent="1">
                    <mxGeometry x="-50" y="5" width="50" height="18" as="geometry"/>
                </mxCell>
                <mxCell id="15" value="&lt;span style=&quot;color: rgb(0, 0, 0);&quot;&gt;结果公告&lt;/span&gt;" style="rounded=1;whiteSpace=wrap;html=1;fontFamily=仿宋;" vertex="1" parent="1">
                    <mxGeometry x="5" y="5" width="50" height="18" as="geometry"/>
                </mxCell>
                <mxCell id="16" value="变更公告" style="rounded=1;whiteSpace=wrap;html=1;fontFamily=仿宋;" vertex="1" parent="1">
                    <mxGeometry x="-50" y="-15" width="50" height="18" as="geometry"/>
                </mxCell>
                <mxCell id="17" value="&lt;span style=&quot;color: rgb(0, 0, 0);&quot;&gt;异常公告&lt;/span&gt;" style="rounded=1;whiteSpace=wrap;html=1;fontFamily=仿宋;" vertex="1" parent="1">
                    <mxGeometry x="5" y="-15" width="50" height="18" as="geometry"/>
                </mxCell>
                <mxCell id="18" value="持久化公告" style="rounded=1;whiteSpace=wrap;html=1;fillColor=#dae8fc;strokeColor=none;fontFamily=黑体;" vertex="1" parent="1">
                    <mxGeometry x="-55" y="80" width="115" height="70" as="geometry"/>
                </mxCell>
                <mxCell id="23" value="purchase_notice" style="html=1;verticalLabelPosition=middle;align=left;labelBackgroundColor=#ffffff;verticalAlign=middle;strokeWidth=2;strokeColor=#0080F0;shadow=0;dashed=0;shape=mxgraph.ios7.icons.data;labelPosition=right;fontFamily=Helvetica;" vertex="1" parent="1">
                    <mxGeometry x="160" y="95.9" width="24" height="29.099999999999998" as="geometry"/>
                </mxCell>
                <mxCell id="24" style="edgeStyle=none;html=1;exitX=1;exitY=0.5;exitDx=0;exitDy=0;entryX=-0.018;entryY=0.638;entryDx=0;entryDy=0;entryPerimeter=0;fillColor=#f8cecc;strokeColor=#b85450;strokeWidth=2;fontFamily=仿宋;" edge="1" parent="1" source="18" target="23">
                    <mxGeometry relative="1" as="geometry"/>
                </mxCell>
                <mxCell id="51" value="公告内容" style="edgeLabel;html=1;align=center;verticalAlign=middle;resizable=0;points=[];fontFamily=仿宋;" vertex="1" connectable="0" parent="24">
                    <mxGeometry x="-0.2369" relative="1" as="geometry">
                        <mxPoint as="offset"/>
                    </mxGeometry>
                </mxCell>
                <mxCell id="25" value="" style="html=1;verticalLabelPosition=bottom;align=center;labelBackgroundColor=#ffffff;verticalAlign=top;strokeWidth=2;strokeColor=#0080F0;shadow=0;dashed=0;shape=mxgraph.ios7.icons.gauge;fontFamily=仿宋;" vertex="1" parent="1">
                    <mxGeometry x="-55" y="190" width="110" height="60" as="geometry"/>
                </mxCell>
                <mxCell id="26" value="推送任务创建" style="text;html=1;align=center;verticalAlign=middle;resizable=0;points=[];autosize=1;strokeColor=none;fillColor=none;fontFamily=仿宋;" vertex="1" parent="1">
                    <mxGeometry x="-50" y="215" width="100" height="30" as="geometry"/>
                </mxCell>
                <mxCell id="27" style="edgeStyle=none;html=1;exitX=0.5;exitY=1;exitDx=0;exitDy=0;entryX=0.526;entryY=-0.019;entryDx=0;entryDy=0;entryPerimeter=0;fillColor=#dae8fc;strokeColor=#6c8ebf;strokeWidth=2;fontFamily=仿宋;" edge="1" parent="1" source="18" target="25">
                    <mxGeometry relative="1" as="geometry"/>
                </mxCell>
                <mxCell id="28" value="qyzc_notice" style="html=1;verticalLabelPosition=middle;align=left;labelBackgroundColor=#ffffff;verticalAlign=middle;strokeWidth=2;strokeColor=#0080F0;shadow=0;dashed=0;shape=mxgraph.ios7.icons.data;labelPosition=right;fontFamily=Helvetica;" vertex="1" parent="1">
                    <mxGeometry x="123" y="261" width="24" height="29.099999999999998" as="geometry"/>
                </mxCell>
                <mxCell id="31" value="qyzc_notice_push_task" style="html=1;verticalLabelPosition=middle;align=left;labelBackgroundColor=#ffffff;verticalAlign=middle;strokeWidth=2;strokeColor=#0080F0;shadow=0;dashed=0;shape=mxgraph.ios7.icons.data;labelPosition=right;fontFamily=Helvetica;" vertex="1" parent="1">
                    <mxGeometry x="160" y="294" width="24" height="29.099999999999998" as="geometry"/>
                </mxCell>
                <mxCell id="52" style="edgeStyle=orthogonalEdgeStyle;html=1;entryX=0.5;entryY=0;entryDx=0;entryDy=0;fillColor=#dae8fc;strokeColor=#6c8ebf;strokeWidth=2;fontFamily=仿宋;" edge="1" parent="1" source="34" target="49">
                    <mxGeometry relative="1" as="geometry"/>
                </mxCell>
                <mxCell id="34" value="" style="html=1;verticalLabelPosition=bottom;align=center;labelBackgroundColor=#ffffff;verticalAlign=top;strokeWidth=2;strokeColor=#0080F0;shadow=0;dashed=0;shape=mxgraph.ios7.icons.gauge;fontFamily=仿宋;" vertex="1" parent="1">
                    <mxGeometry x="-52.5" y="343" width="110" height="60" as="geometry"/>
                </mxCell>
                <mxCell id="35" value="公告推送" style="text;html=1;align=center;verticalAlign=middle;resizable=0;points=[];autosize=1;strokeColor=none;fillColor=none;fontFamily=仿宋;" vertex="1" parent="1">
                    <mxGeometry x="-32.5" y="370" width="70" height="30" as="geometry"/>
                </mxCell>
                <mxCell id="39" style="edgeStyle=orthogonalEdgeStyle;html=1;entryX=0.483;entryY=-0.014;entryDx=0;entryDy=0;entryPerimeter=0;fillColor=#dae8fc;strokeColor=#6c8ebf;strokeWidth=2;fontFamily=仿宋;" edge="1" parent="1" source="26" target="34">
                    <mxGeometry relative="1" as="geometry"/>
                </mxCell>
                <mxCell id="56" style="edgeStyle=orthogonalEdgeStyle;html=1;exitX=0.25;exitY=1;exitDx=0;exitDy=0;entryX=0.25;entryY=0;entryDx=0;entryDy=0;fillColor=#dae8fc;strokeColor=#6c8ebf;strokeWidth=2;fontFamily=仿宋;" edge="1" parent="1" source="49" target="50">
                    <mxGeometry relative="1" as="geometry"/>
                </mxCell>
                <mxCell id="49" value="贵州中台" style="rounded=1;whiteSpace=wrap;html=1;fillColor=#dae8fc;strokeColor=none;fontFamily=黑体;" vertex="1" parent="1">
                    <mxGeometry x="-55" y="445.1" width="115" height="70" as="geometry"/>
                </mxCell>
                <mxCell id="57" style="edgeStyle=orthogonalEdgeStyle;html=1;exitX=0.75;exitY=0;exitDx=0;exitDy=0;entryX=0.75;entryY=1;entryDx=0;entryDy=0;fillColor=#e1d5e7;strokeColor=#9673a6;strokeWidth=2;fontFamily=仿宋;" edge="1" parent="1" source="50" target="49">
                    <mxGeometry relative="1" as="geometry"/>
                </mxCell>
                <mxCell id="50" value="第三方平台" style="rounded=1;whiteSpace=wrap;html=1;fillColor=#e1d5e7;strokeColor=none;fontFamily=黑体;" vertex="1" parent="1">
                    <mxGeometry x="-55" y="560.1" width="115" height="70" as="geometry"/>
                </mxCell>
                <mxCell id="54" style="edgeStyle=orthogonalEdgeStyle;html=1;entryX=0;entryY=0.687;entryDx=0;entryDy=0;entryPerimeter=0;fillColor=#f8cecc;strokeColor=#b85450;exitX=1;exitY=0.25;exitDx=0;exitDy=0;strokeWidth=2;fontFamily=仿宋;" edge="1" parent="1" source="49" target="31">
                    <mxGeometry relative="1" as="geometry">
                        <Array as="points">
                            <mxPoint x="90" y="463"/>
                            <mxPoint x="90" y="314"/>
                        </Array>
                    </mxGeometry>
                </mxCell>
                <mxCell id="70" value="中台状态" style="edgeLabel;html=1;align=center;verticalAlign=middle;resizable=0;points=[];fontFamily=仿宋;" vertex="1" connectable="0" parent="54">
                    <mxGeometry x="-0.2543" relative="1" as="geometry">
                        <mxPoint as="offset"/>
                    </mxGeometry>
                </mxCell>
                <mxCell id="58" style="edgeStyle=orthogonalEdgeStyle;html=1;exitX=1;exitY=0.75;exitDx=0;exitDy=0;entryX=0;entryY=0.687;entryDx=0;entryDy=0;entryPerimeter=0;fillColor=#f8cecc;strokeColor=#b85450;strokeWidth=2;fontFamily=仿宋;" edge="1" parent="1" source="49" target="31">
                    <mxGeometry relative="1" as="geometry">
                        <Array as="points">
                            <mxPoint x="120" y="498"/>
                            <mxPoint x="120" y="314"/>
                        </Array>
                    </mxGeometry>
                </mxCell>
                <mxCell id="87" value="第三方状态" style="edgeLabel;html=1;align=center;verticalAlign=middle;resizable=0;points=[];" vertex="1" connectable="0" parent="58">
                    <mxGeometry x="-0.4522" relative="1" as="geometry">
                        <mxPoint as="offset"/>
                    </mxGeometry>
                </mxCell>
                <mxCell id="61" style="edgeStyle=orthogonalEdgeStyle;html=1;entryX=0;entryY=0.687;entryDx=0;entryDy=0;entryPerimeter=0;fillColor=#f8cecc;strokeColor=#b85450;strokeWidth=2;fontFamily=仿宋;" edge="1" parent="1" source="25" target="31">
                    <mxGeometry relative="1" as="geometry">
                        <Array as="points">
                            <mxPoint y="314"/>
                        </Array>
                    </mxGeometry>
                </mxCell>
                <mxCell id="68" value="&lt;span style=&quot;color: rgb(0, 0, 0); font-family: 仿宋;&quot;&gt;推送任务创建&lt;/span&gt;" style="edgeLabel;html=1;align=center;verticalAlign=middle;resizable=0;points=[];" vertex="1" connectable="0" parent="61">
                    <mxGeometry x="0.1311" y="1" relative="1" as="geometry">
                        <mxPoint as="offset"/>
                    </mxGeometry>
                </mxCell>
                <mxCell id="65" value="推送至第三方平台" style="text;html=1;align=center;verticalAlign=middle;resizable=0;points=[];autosize=1;strokeColor=none;fillColor=none;fontFamily=仿宋;" vertex="1" parent="1">
                    <mxGeometry x="-57.5" y="520.1" width="120" height="30" as="geometry"/>
                </mxCell>
                <mxCell id="66" style="edgeStyle=orthogonalEdgeStyle;html=1;entryX=0.994;entryY=0.457;entryDx=0;entryDy=0;entryPerimeter=0;fillColor=#d5e8d4;strokeColor=#82b366;strokeWidth=2;" edge="1" parent="1" source="23" target="25">
                    <mxGeometry relative="1" as="geometry">
                        <Array as="points">
                            <mxPoint x="172" y="217"/>
                        </Array>
                    </mxGeometry>
                </mxCell>
                <mxCell id="71" value="order" style="html=1;verticalLabelPosition=middle;align=left;labelBackgroundColor=#ffffff;verticalAlign=middle;strokeWidth=2;strokeColor=#0080F0;shadow=0;dashed=0;shape=mxgraph.ios7.icons.data;labelPosition=right;fontFamily=Helvetica;" vertex="1" parent="1">
                    <mxGeometry x="161" y="381" width="24" height="29.099999999999998" as="geometry"/>
                </mxCell>
                <mxCell id="72" value="candidate" style="html=1;verticalLabelPosition=middle;align=left;labelBackgroundColor=#ffffff;verticalAlign=middle;strokeWidth=2;strokeColor=#0080F0;shadow=0;dashed=0;shape=mxgraph.ios7.icons.data;labelPosition=right;fontFamily=Helvetica;" vertex="1" parent="1">
                    <mxGeometry x="161" y="416" width="24" height="29.099999999999998" as="geometry"/>
                </mxCell>
                <mxCell id="73" value="win" style="html=1;verticalLabelPosition=middle;align=left;labelBackgroundColor=#ffffff;verticalAlign=middle;strokeWidth=2;strokeColor=#0080F0;shadow=0;dashed=0;shape=mxgraph.ios7.icons.data;labelPosition=right;fontFamily=Helvetica;" vertex="1" parent="1">
                    <mxGeometry x="161" y="450.9" width="24" height="29.099999999999998" as="geometry"/>
                </mxCell>
                <mxCell id="79" style="edgeStyle=orthogonalEdgeStyle;html=1;entryX=0.964;entryY=0.516;entryDx=0;entryDy=0;entryPerimeter=0;strokeWidth=2;fillColor=#d5e8d4;strokeColor=#82b366;" edge="1" parent="1" source="72" target="34">
                    <mxGeometry relative="1" as="geometry">
                        <Array as="points">
                            <mxPoint x="130" y="431"/>
                            <mxPoint x="130" y="374"/>
                        </Array>
                    </mxGeometry>
                </mxCell>
                <mxCell id="80" style="edgeStyle=orthogonalEdgeStyle;html=1;entryX=0.963;entryY=0.513;entryDx=0;entryDy=0;entryPerimeter=0;strokeWidth=2;fillColor=#d5e8d4;strokeColor=#82b366;" edge="1" parent="1" source="73" target="34">
                    <mxGeometry relative="1" as="geometry">
                        <Array as="points">
                            <mxPoint x="130" y="465"/>
                            <mxPoint x="130" y="374"/>
                        </Array>
                    </mxGeometry>
                </mxCell>
                <mxCell id="81" style="edgeStyle=orthogonalEdgeStyle;html=1;entryX=0.965;entryY=0.512;entryDx=0;entryDy=0;entryPerimeter=0;strokeWidth=2;fillColor=#d5e8d4;strokeColor=#82b366;" edge="1" parent="1" source="71" target="34">
                    <mxGeometry relative="1" as="geometry">
                        <Array as="points">
                            <mxPoint x="130" y="396"/>
                            <mxPoint x="130" y="374"/>
                        </Array>
                    </mxGeometry>
                </mxCell>
                <mxCell id="83" style="edgeStyle=orthogonalEdgeStyle;html=1;entryX=0.967;entryY=0.519;entryDx=0;entryDy=0;entryPerimeter=0;strokeWidth=2;fillColor=#d5e8d4;strokeColor=#82b366;" edge="1" parent="1" source="31" target="34">
                    <mxGeometry relative="1" as="geometry">
                        <Array as="points">
                            <mxPoint x="170" y="374"/>
                        </Array>
                    </mxGeometry>
                </mxCell>
                <mxCell id="84" style="edgeStyle=orthogonalEdgeStyle;html=1;entryX=-0.117;entryY=0.573;entryDx=0;entryDy=0;entryPerimeter=0;fillColor=#f8cecc;strokeColor=#b85450;strokeWidth=2;" edge="1" parent="1" source="26" target="28">
                    <mxGeometry relative="1" as="geometry">
                        <Array as="points">
                            <mxPoint y="278"/>
                        </Array>
                    </mxGeometry>
                </mxCell>
                <mxCell id="85" value="&lt;span style=&quot;color: rgb(0, 0, 0); font-family: 仿宋;&quot;&gt;同步公告&lt;/span&gt;" style="edgeLabel;html=1;align=center;verticalAlign=middle;resizable=0;points=[];" vertex="1" connectable="0" parent="84">
                    <mxGeometry x="0.1303" y="1" relative="1" as="geometry">
                        <mxPoint as="offset"/>
                    </mxGeometry>
                </mxCell>
                <mxCell id="86" style="edgeStyle=orthogonalEdgeStyle;html=1;entryX=0.968;entryY=0.545;entryDx=0;entryDy=0;entryPerimeter=0;strokeWidth=2;fillColor=#d5e8d4;strokeColor=#82b366;" edge="1" parent="1">
                    <mxGeometry relative="1" as="geometry">
                        <mxPoint x="137" y="290" as="sourcePoint"/>
                        <mxPoint x="55.49999999999999" y="373.6" as="targetPoint"/>
                        <Array as="points">
                            <mxPoint x="136.52" y="373.9"/>
                        </Array>
                    </mxGeometry>
                </mxCell>
            </root>
        </mxGraphModel>
    </diagram>
</mxfile>